<?xml version="1.0" encoding="utf-8"?>
<!-- Generator: Adobe Illustrator 24.3.0, SVG Export Plug-In . SVG Version: 6.00 Build 0)  -->
<svg version="1.1" id="Layer_1" xmlns="http://www.w3.org/2000/svg" xmlns:xlink="http://www.w3.org/1999/xlink" x="0px" y="0px"
	 viewBox="0 0 101.8 97.6" style="enable-background:new 0 0 101.8 97.6;" xml:space="preserve">
<style type="text/css">
	.st0{fill:#E9C46A;}
	.st1{fill:#264653;}
	.st2{fill:#2A9D8F;}
	.st3{fill:#F4A261;}
	.st4{fill:#E76F51;}
</style>
<path class="st0" d="M74,7.4L27.8,7.4C17.1,7.3,8.6,16.9,9.4,28l3.3,44.5c0.7,10,8.7,17.7,18.4,17.7h40.2c9.7,0,17.8-7.9,18.4-18
	l2.7-44.4C93,16.8,84.6,7.4,74,7.4z"/>
<path class="st1" d="M60,82.7l-18.1-8c-1.2-0.5-1.7-1.9-1.2-3l8-18.1c0.5-1.2,1.9-1.7,3-1.2l18.1,8c1.2,0.5,1.7,1.9,1.2,3l-8,18.1
	C62.5,82.7,61.2,83.2,60,82.7z"/>
<path class="st2" d="M25.1,76.3L14.9,54.5c-0.5-1.2,0-2.5,1.1-3.1l21.8-10.2c1.2-0.5,2.5,0,3.1,1.1L51,64.2c0.5,1.2,0,2.5-1.1,3.1
	L28.1,77.4C27,78,25.6,77.5,25.1,76.3z"/>
<polygon class="st3" points="7.7,42.8 94.1,27.3 88.6,7.4 7.7,7.4 "/>
<circle class="st1" cx="84.2" cy="46.7" r="2.8"/>
<circle class="st1" cx="73.7" cy="54.9" r="1.9"/>
<circle class="st1" cx="84.5" cy="61.9" r="2.2"/>
<circle class="st1" cx="78.3" cy="74.6" r="1.3"/>
<circle class="st1" cx="68.7" cy="79.4" r="1.3"/>
<circle class="st1" cx="74.2" cy="35.2" r="3.4"/>
<path class="st4" d="M79.2,0.1L22.6,0C10.1,0,0,10.1,0,22.6c0,0.6,0,1.2,0.1,1.8l4,52.4C5,88.5,14.8,97.6,26.6,97.6h49.2
	c11.9,0,21.8-9.3,22.6-21.2l3.3-52.4c0.8-12.4-8.7-23.2-21.1-24C80.1,0.1,79.7,0.1,79.2,0.1z M92.3,27.8l-2.7,44.5
	c-0.6,10.1-8.7,18-18.4,18H31.1c-9.6,0-17.6-7.7-18.4-17.7L9.4,28C8.6,16.9,17.1,7.3,27.8,7.4L74,7.4C84.6,7.4,93,16.8,92.3,27.8z"
	/>
</svg>
